<svg width="27" height="27" viewBox="0 0 27 27" fill="none" xmlns="http://www.w3.org/2000/svg">
<path d="M13.4995 0.0444336C6.06659 0.0444336 0.0407715 6.07009 0.0407715 13.503C0.0407715 20.9362 6.06659 26.9613 13.4995 26.9613C20.9331 26.9613 26.9583 20.9362 26.9583 13.503C26.9583 6.07058 20.9331 0.0450764 13.4993 0.0450764L13.4995 0.0444336ZM19.6715 19.4555C19.4305 19.8509 18.913 19.9762 18.5176 19.7335C15.3576 17.8034 11.3796 17.3662 6.69483 18.4366C6.24338 18.5394 5.79338 18.2566 5.69052 17.805C5.58718 17.3534 5.86891 16.9034 6.32149 16.8005C11.4483 15.6287 15.8459 16.1335 19.3935 18.3016C19.7889 18.5443 19.9142 19.0601 19.6715 19.4555ZM21.3189 15.7904C21.0151 16.2846 20.369 16.4405 19.8756 16.1368C16.258 13.9126 10.7434 13.2686 6.46436 14.5675C5.90941 14.7352 5.32329 14.4224 5.15486 13.8684C4.98772 13.3135 5.30063 12.7285 5.85461 12.5597C10.7424 11.0767 16.8189 11.7951 20.9733 14.348C21.4667 14.6518 21.6226 15.2978 21.3189 15.7906V15.7904ZM21.4603 11.9744C17.1226 9.39801 9.966 9.16111 5.82456 10.4181C5.15952 10.6198 4.45624 10.2443 4.2547 9.57929C4.05316 8.91393 4.42827 8.21113 5.09379 8.00895C9.84788 6.56574 17.751 6.84458 22.745 9.80927C23.3445 10.1643 23.5406 10.9368 23.1854 11.5342C22.8318 12.1324 22.0572 12.3296 21.4609 11.9744H21.4603Z" fill="#1ED760"/>
</svg>
